#!OML:ASF F:\VICON\USERDATA\INSTALL\rory3\rory3.ASF
:FULLY-SPECIFIED
:DEGREES
540
root 0.426211 18.1494 -4.08551 0.0595975 -42.8007 -1.00021
lowerback 5.44994 -8.65889 -7.17745
upperback 0.0605031 -11.9459 2.47445
thorax -0.96843 -5.95828 7.0491
lowerneck -12.5325 2.39265 -3.22412
upperneck 8.398 3.23736 4.72528
head 4.4228 1.78187 2.21934
rclavicle 3.12465e-014 -1.0635e-014
rhumerus -37.4932 -23.9455 -21.7545
rradius 105.766
rwrist 17.6946
rhand -34.2576 14.2242
rfingers 7.12502
rthumb -7.4282 -15.6254
lclavicle 3.12465e-014 -1.0635e-014
lhumerus 18.7302 -47.8359 64.8734
lradius 86.3361
lwrist -11.8725
lhand -34.8809 9.70247
lfingers 7.12502
lthumb -8.02984 39.5299
rfemur -21.8364 32.6753 4.59416
rtibia 26.5792
rfoot -11.5799 2.95662
rtoes -16.3706
lfemur 9.11197 10.0708 -10.3982
ltibia 20.9959
lfoot -28.4762 28.7004
ltoes -6.95937
541
root 0.422302 18.1572 -4.10348 -0.0319964 -41.6692 -0.902965
lowerback 5.47738 -8.60604 -7.25625
upperback 0.034324 -11.8832 2.36283
thorax -1.03002 -5.92102 6.98475
lowerneck -12.51 2.20053 -3.5754
upperneck 8.45581 3.0009 5.06138
head 4.43613 1.67487 2.36448
rclavicle 1.24573e-013 -1.61016e-014
rhumerus -37.3029 -23.7584 -22.1997
rradius 105.778
rwrist 17.6853
rhand -34.6097 14.6976
rfingers 7.12502
rthumb -7.76805 -15.1397
lclavicle 1.24573e-013 -1.61016e-014
lhumerus 18.3679 -47.3968 64.681
lradius 86.1727
lwrist -12.0657
lhand -34.9156 9.449
lfingers 7.12502
lthumb -8.06328 39.2752
rfemur -21.3591 32.3316 4.69111
rtibia 26.5574
rfoot -11.73 2.23883
rtoes -16.5654
lfemur 8.62863 10.0537 -10.1287
ltibia 21.3525
lfoot -27.6813 27.9857
ltoes -7.79518
542
root 0.419455 18.1642 -4.12856 0.102767 -40.4403 -0.951047
lowerback 5.38163 -8.56229 -7.25447
upperback 0.0187489 -11.8187 2.27397
thorax -1.02382 -5.88714 6.87856
lowerneck -12.5261 1.98367 -3.84188
upperneck 8.52059 2.71878 5.37864
head 4.46339 1.54734 2.48799
rclavicle 6.55415e-014 -2.3556e-014
rhumerus -37.1072 -23.7336 -22.6161
rradius 105.705
rwrist 17.9082
rhand -34.8549 14.752
rfingers 7.12502
rthumb -8.00474 -15.0764
lclavicle 6.55415e-014 -2.3556e-014
lhumerus 18.2571 -46.9967 64.1904
lradius 86.1113
lwrist -12.3041
lhand -35.0614 10.4062
lfingers 7.12502
lthumb -8.204 40.2269
rfemur -21.0321 31.894 4.82735
rtibia 26.521
rfoot -11.8276 1.48873
rtoes -16.7299
lfemur 7.96212 10.1085 -9.70836
ltibia 21.6682
lfoot -26.7638 27.1211
ltoes -8.65878
543
root 0.41173 18.1691 -4.14912 0.0888612 -39.2558 -0.988082
lowerback 5.33091 -8.50246 -7.37179
upperback 0.0590586 -11.7416 2.2551
thorax -0.947385 -5.85282 6.9074
lowerneck -12.4632 1.76202 -4.16222
upperneck 8.49695 2.45845 5.53491
head 4.45232 1.41791 2.56918
rclavicle -4.09993e-016 1.25731e-014
rhumerus -36.9845 -23.7941 -23.0509
rradius 105.825
rwrist 18.0502
rhand -34.8717 15.0438
rfingers 7.12502
rthumb -8.02091 -14.784
lclavicle -4.09993e-016 1.25731e-014
lhumerus 18.1641 -46.4521 63.7898
lradius 86.0128
lwrist -12.6295
lhand -34.4627 9.56732
lfingers 7.12502
lthumb -7.62618 39.4098
rfemur -20.5 31.4771 5.05777
rtibia 26.4569
rfoot -11.9649 0.807789
rtoes -16.9348
lfemur 7.47167 10.1498 -9.28768
ltibia 21.9993
lfoot -25.9001 26.3368
ltoes -9.88579
544
root 0.403744 18.1755 -4.1674 0.0663183 -38.0862 -1.10387
lowerback 5.38141 -8.46401 -7.47371
upperback 0.0860722 -11.6992 2.30924
thorax -0.922547 -5.8341 7.0219
lowerneck -12.4146 1.58147 -4.56507
upperneck 8.49122 2.27147 5.65556
head 4.44579 1.3199 2.65844
rclavicle -6.60478e-014 1.55052e-014
rhumerus -36.7609 -23.7271 -23.5894
rradius 106.078
rwrist 17.9976
rhand -34.7345 14.9762
rfingers 7.12502
rthumb -7.88856 -14.8566
lclavicle -6.60478e-014 1.55052e-014
lhumerus 17.987 -45.8301 63.4593
lradius 85.9175
lwrist -12.7683
lhand -34.2436 9.29755
lfingers 7.12502
lthumb -7.41473 39.1476
rfemur -19.885 31.0969 5.39387
rtibia 26.3918
rfoot -12.1508 0.152759
rtoes -16.9053
lfemur 7.06277 10.0859 -8.83565
ltibia 22.2971
lfoot -25.1963 25.6243
ltoes -10.8833
